<?xml version="1.0" standalone="no"?><!DOCTYPE svg PUBLIC "-//W3C//DTD SVG 1.1//EN" "http://www.w3.org/Graphics/SVG/1.1/DTD/svg11.dtd"><svg t="1505793160700" class="icon" style="" viewBox="0 0 1024 1024" version="1.1" xmlns="http://www.w3.org/2000/svg" p-id="997" xmlns:xlink="http://www.w3.org/1999/xlink" width="64" height="64"><defs><style type="text/css"></style></defs><path d="M862.012164 567.764048c55.766095 0 83.646072-167.294191 0-167.294191L694.718997 400.469857c167.292144-278.819217 46.175669-334.585311 0-334.585311 0 141.651161-208.308303 299.500235-418.2365 362.471428l0 446.108291L220.720496 874.464265 220.720496 428.350858l55.762001 0 0-27.891234L164.960541 400.459624c-30.674627 0-55.766095 37.646412-55.766095 83.653235l0 334.590428c0 46.000684 25.092491 83.640955 55.766095 83.640955l111.527073 0 0-27.874861c237.637282 24.696472 154.789389 83.646072 390.350382 83.646072 55.760978 0 111.527073-27.879977 111.527073-83.646072 55.766095 0 83.651188-139.40705 55.766095-139.40705C889.897258 735.062332 925.61883 567.764048 862.012164 567.764048L862.012164 567.764048 862.012164 567.764048zM862.012164 567.764048" p-id="998" fill="#cdcdcd"></path></svg>